<?xml version="1.0" encoding="UTF-8"?>
<svg version="1.1" xmlns="http://www.w3.org/2000/svg" width="200" height="200">
<path d="M0 0 C66 0 132 0 200 0 C200 66 200 132 200 200 C134 200 68 200 0 200 C0 134 0 68 0 0 Z " fill="#03021F" transform="translate(0,0)"/>
<path d="M0 0 C0.83968826 -0.00708481 1.67937653 -0.01416962 2.54450989 -0.02146912 C3.45734741 -0.0189917 4.37018494 -0.01651428 5.3106842 -0.01396179 C6.2785939 -0.01907272 7.2465036 -0.02418365 8.2437439 -0.02944946 C11.44458696 -0.04335419 14.64521492 -0.04238804 17.84608459 -0.04008484 C20.07041504 -0.04397121 22.29474475 -0.04830575 24.51907349 -0.05307007 C29.18205674 -0.06053413 33.84496427 -0.06023958 38.50794983 -0.05497742 C44.48465015 -0.0491818 50.46104068 -0.0661153 56.43768978 -0.08932209 C61.03161431 -0.10405066 65.62546408 -0.10493233 70.21940804 -0.10181236 C72.42303137 -0.10232599 74.62665885 -0.10757145 76.83025932 -0.11762428 C79.91117895 -0.12995449 82.99149309 -0.12321731 86.07240295 -0.11161804 C86.98321625 -0.11926178 87.89402954 -0.12690552 88.83244324 -0.13478088 C95.11137369 -0.08250556 98.51623139 0.99549405 103.03553772 5.56562805 C106.22007133 10.79797701 105.32798255 17.47185908 105.28749084 23.38179016 C105.29018909 24.76892366 105.29407427 26.15605531 105.29908752 27.54318237 C105.30496908 30.44407742 105.29646527 33.3444782 105.27772522 36.24531555 C105.25495675 39.94864822 105.2680523 43.65081981 105.29201508 47.35410976 C105.30652836 50.21706758 105.30184169 53.07975404 105.29150391 55.94272041 C105.28885071 57.30735985 105.2920565 58.67202457 105.30142212 60.03663445 C105.37259313 73.32166347 105.37259313 73.32166347 100.75624084 79.26069641 C95.34605132 83.42238066 88.32421271 82.97809822 81.75624084 83.26069641 C81.06023139 85.11009748 81.06023139 85.11009748 80.75624084 87.26069641 C81.43686584 88.23007141 82.11749084 89.19944641 82.81874084 90.19819641 C83.45811584 91.20882141 84.09749084 92.21944641 84.75624084 93.26069641 C84.00624084 96.13569641 84.00624084 96.13569641 82.75624084 98.26069641 C78.48293713 97.72833198 75.39401827 96.77828184 71.68202209 94.60835266 C70.76743225 94.0791925 69.85284241 93.55003235 68.91053772 93.00483704 C67.97274475 92.44989563 67.03495178 91.89495422 66.06874084 91.32319641 C65.11934631 90.77212219 64.16995178 90.22104797 63.19178772 89.65327454 C59.65575816 87.59371875 56.16175628 85.53104003 52.75624084 83.26069641 C50.1983611 82.97300726 50.1983611 82.97300726 47.29432678 83.0370636 C46.17596436 83.03656006 45.05760193 83.03605652 43.90534973 83.03553772 C42.69598755 83.04280884 41.48662537 83.05007996 40.24061584 83.05757141 C37.68462117 83.04702125 35.12863124 83.03526453 32.57264709 83.02241516 C28.53914534 83.00976356 24.5060166 83.00857487 20.47254944 83.03071594 C16.58216722 83.04549015 12.69339468 83.02300754 8.80311584 82.99507141 C7.60185059 83.01043945 6.40058533 83.0258075 5.16291809 83.04164124 C-1.3778998 82.9658087 -5.37672219 82.49985865 -10.0735321 77.74269104 C-12.6109679 74.52924095 -12.38690163 71.98935052 -12.42076111 67.96260071 C-12.4306179 66.99397598 -12.4306179 66.99397598 -12.44067383 66.00578308 C-12.46040863 63.86549261 -12.47207011 61.72527234 -12.48204041 59.58491516 C-12.48611593 58.85380838 -12.49019146 58.12270161 -12.49439049 57.36944008 C-12.51525266 53.49929206 -12.52955333 49.62917952 -12.53892517 45.75898743 C-12.54998619 41.76403166 -12.58438134 37.76963344 -12.62409687 33.77487469 C-12.65025986 30.70103937 -12.65861671 27.62733691 -12.66220665 24.55340004 C-12.667074 23.08100942 -12.6786924 21.60862479 -12.69724464 20.136343 C-12.72162995 18.07277322 -12.72067335 16.01064587 -12.71372986 13.94697571 C-12.7195961 12.77386337 -12.72546234 11.60075104 -12.73150635 10.39208984 C-12.13558538 6.56620826 -10.96967097 4.97001274 -8.24375916 2.26069641 C-5.39621755 0.5559435 -3.30336063 0.00932463 0 0 Z " fill="#5C56F3" transform="translate(56.24375915527344,21.739303588867188)"/>
<path d="M0 0 C28.8639759 -1.29517841 28.8639759 -1.29517841 37.27734375 4.91015625 C39.20156774 7.2445323 39.66985833 8.44020146 39.75 11.4375 C39.5025 12.613125 39.255 13.78875 39 15 C40.19496094 14.93039063 40.19496094 14.93039063 41.4140625 14.859375 C52.11928041 14.49472038 52.11928041 14.49472038 57 19 C59.85101475 22.0410824 60 22.6256112 60 27 C33.27 27 6.54 27 -21 27 C-19.74651458 19.47908745 -19.74651458 19.47908745 -15 16 C-12.11628549 15.62646185 -10.01710038 15.51287147 -7.1875 15.6875 C-4.815625 15.790625 -2.44375 15.89375 0 16 C0 10.72 0 5.44 0 0 Z " fill="#E9EAEC" transform="translate(82,106)"/>
<path d="M0 0 C30.36 0 60.72 0 92 0 C92.495 1.98 92.495 1.98 93 4 C91.14418034 5.85581966 88.50601694 5.12004366 86.03713989 5.12442017 C85.18046722 5.12082489 84.32379456 5.11722961 83.44116211 5.11352539 C82.54368759 5.11367142 81.64621307 5.11381744 80.72154236 5.1139679 C77.74011866 5.11326842 74.7587566 5.10547441 71.77734375 5.09765625 C69.71611058 5.09579219 67.65487696 5.09436823 65.59364319 5.09336853 C60.1569599 5.08954237 54.72030314 5.07971126 49.28363037 5.06866455 C43.74052286 5.05845253 38.19741108 5.05387136 32.65429688 5.04882812 C21.76951957 5.03808908 10.88476198 5.02101149 0 5 C0 3.35 0 1.7 0 0 Z " fill="#0C0935" transform="translate(56,54)"/>
<path d="M0 0 C30.03 0 60.06 0 91 0 C91.495 1.98 91.495 1.98 92 4 C90.14418034 5.85581966 87.50601694 5.12004366 85.03713989 5.12442017 C84.18046722 5.12082489 83.32379456 5.11722961 82.44116211 5.11352539 C81.54368759 5.11367142 80.64621307 5.11381744 79.72154236 5.1139679 C76.74011866 5.11326842 73.7587566 5.10547441 70.77734375 5.09765625 C68.71611058 5.09579219 66.65487696 5.09436823 64.59364319 5.09336853 C59.1569599 5.08954237 53.72030314 5.07971126 48.28363037 5.06866455 C42.74052286 5.05845253 37.19741108 5.05387136 31.65429688 5.04882812 C20.76951957 5.03808908 9.88476198 5.02101149 -1 5 C-0.67 3.35 -0.34 1.7 0 0 Z " fill="#110737" transform="translate(57,68)"/>
<path d="M0 0 C30.36 0 60.72 0 92 0 C92.495 1.98 92.495 1.98 93 4 C62.31 4 31.62 4 0 4 C0 2.68 0 1.36 0 0 Z " fill="#02011F" transform="translate(56,83)"/>
<path d="M0 0 C30.36 0 60.72 0 92 0 C92 1.32 92 2.64 92 4 C61.64 4 31.28 4 0 4 C0 2.68 0 1.36 0 0 Z " fill="#020221" transform="translate(56,40)"/>
<path d="M0 0 C2.29109597 -0.08075665 4.58299267 -0.13907731 6.875 -0.1875 C8.78925781 -0.23970703 8.78925781 -0.23970703 10.7421875 -0.29296875 C11.81726563 -0.19628906 12.89234375 -0.09960938 14 0 C14.66 0.99 15.32 1.98 16 3 C16.66 2.01 17.32 1.02 18 0 C19.32 0 20.64 0 22 0 C18.81715576 10.36117381 18.81715576 10.36117381 16 14 C15.01 14 14.02 14 13 14 C13.061875 12.741875 13.12375 11.48375 13.1875 10.1875 C13.23632922 6.83041021 13.23632922 6.83041021 11.5 4 C11.005 3.67 10.51 3.34 10 3 C8.68 3.99 7.36 4.98 6 6 C7.32 6.33 8.64 6.66 10 7 C10 7.99 10 8.98 10 10 C6.7 10 3.4 10 0 10 C1 6 1 6 3 4 C2.01 3.67 1.02 3.34 0 3 C0 2.01 0 1.02 0 0 Z " fill="#D7D8DC" transform="translate(70,146)"/>
<path d="M0 0 C1.32 0 2.64 0 4 0 C4.02685412 2.31243792 4.04632841 4.6249627 4.0625 6.9375 C4.07410156 8.22527344 4.08570313 9.51304687 4.09765625 10.83984375 C4 14 4 14 3 15 C-3.18545455 15.45818182 -3.18545455 15.45818182 -6 13.875 C-7.51087147 11.042116 -6.78779328 9.01987426 -6 6 C-5 5 -5 5 -2.4375 4.9375 C-1.2309375 4.9684375 -1.2309375 4.9684375 0 5 C0 3.35 0 1.7 0 0 Z " fill="#CBCBD1" transform="translate(151,141)"/>
<path d="M0 0 C1.98 0 3.96 0 6 0 C6 0.99 6 1.98 6 3 C6.66 3 7.32 3 8 3 C8 2.01 8 1.02 8 0 C13.75 -0.125 13.75 -0.125 16 1 C16 2.32 16 3.64 16 5 C16.99 5 17.98 5 19 5 C19.33 3.35 19.66 1.7 20 0 C20.99 0 21.98 0 23 0 C23 1.98 23 3.96 23 6 C20.36 6 17.72 6 15 6 C15 5.34 15 4.68 15 4 C14.34 4 13.68 4 13 4 C12.67 4.66 12.34 5.32 12 6 C8.04 6 4.08 6 0 6 C0 4.02 0 2.04 0 0 Z " fill="#005C98" transform="translate(41,167)"/>
<path d="M0 0 C2.01822917 0.06510417 4.03645833 0.13020833 6.0546875 0.1953125 C6.0546875 4.8153125 6.0546875 9.4353125 6.0546875 14.1953125 C5.0646875 14.1953125 4.0746875 14.1953125 3.0546875 14.1953125 C3.0546875 12.5453125 3.0546875 10.8953125 3.0546875 9.1953125 C2.2709375 9.2365625 1.4871875 9.2778125 0.6796875 9.3203125 C-1.9453125 9.1953125 -1.9453125 9.1953125 -3.9453125 7.1953125 C-4.1953125 4.6953125 -4.1953125 4.6953125 -3.9453125 2.1953125 C-1.9453125 0.1953125 -1.9453125 0.1953125 0 0 Z " fill="#D8D9DD" transform="translate(112.9453125,145.8046875)"/>
<path d="M0 0 C0.78375 0.04125 1.5675 0.0825 2.375 0.125 C3.035 1.445 3.695 2.765 4.375 4.125 C2.725 4.125 1.075 4.125 -0.625 4.125 C0.365 4.785 1.355 5.445 2.375 6.125 C3.365 6.785 4.355 7.445 5.375 8.125 C5.75 10.625 5.75 10.625 5.375 13.125 C2.15126323 15.27415785 1.10796326 15.50786803 -2.625 15.125 C-3.285 14.465 -3.945 13.805 -4.625 13.125 C-4.625 12.135 -4.625 11.145 -4.625 10.125 C-3.635 10.125 -2.645 10.125 -1.625 10.125 C-1.625 10.785 -1.625 11.445 -1.625 12.125 C-0.635 12.125 0.355 12.125 1.375 12.125 C-0.55754772 10.1004262 -2.25658688 8.70394208 -4.625 7.125 C-4.9375 4.625 -4.9375 4.625 -4.625 2.125 C-2.625 0.125 -2.625 0.125 0 0 Z " fill="#E0E1E4" transform="translate(102.625,140.875)"/>
<path d="M0 0 C2.97 0 5.94 0 9 0 C9 3.3 9 6.6 9 10 C2.9453125 10.1953125 2.9453125 10.1953125 1 10 C-1 8 -1 8 -1.1875 5 C-1 2 -1 2 0 0 Z " fill="#CFD0D5" transform="translate(134,146)"/>
<path d="M0 0 C2.01822917 0.06510417 4.03645833 0.13020833 6.0546875 0.1953125 C6.0546875 3.4953125 6.0546875 6.7953125 6.0546875 10.1953125 C-0.35349432 10.55803977 -0.35349432 10.55803977 -2.8828125 9.0078125 C-4.30936577 6.57428046 -4.30102674 4.96988354 -3.9453125 2.1953125 C-1.9453125 0.1953125 -1.9453125 0.1953125 0 0 Z " fill="#CDCED3" transform="translate(61.9453125,145.8046875)"/>
<path d="M0 0 C0.98484375 0.00902344 1.9696875 0.01804688 2.984375 0.02734375 C4.10585937 0.04474609 4.10585937 0.04474609 5.25 0.0625 C4.92 2.0425 4.59 4.0225 4.25 6.0625 C-0.7 6.0625 -5.65 6.0625 -10.75 6.0625 C-10.42 4.4125 -10.09 2.7625 -9.75 1.0625 C-6.43929162 0.06140485 -3.44915231 -0.04106134 0 0 Z " fill="#372183" transform="translate(107.75,166.9375)"/>
<path d="M0 0 C2.97 0 5.94 0 9 0 C8 4 8 4 6 6 C7.32 6.33 8.64 6.66 10 7 C10 7.99 10 8.98 10 10 C6.7 10 3.4 10 0 10 C1 6 1 6 3 4 C2.01 3.67 1.02 3.34 0 3 C0 2.01 0 1.02 0 0 Z " fill="#E2E3E6" transform="translate(70,146)"/>
<path d="M0 0 C0.99 0 1.98 0 3 0 C3 1.98 3 3.96 3 6 C4.32 6 5.64 6 7 6 C7 4.02 7 2.04 7 0 C7.99 0 8.98 0 10 0 C10 3.3 10 6.6 10 10 C8.72125 10.061875 7.4425 10.12375 6.125 10.1875 C5.40570313 10.22230469 4.68640625 10.25710937 3.9453125 10.29296875 C3.30335937 10.19628906 2.66140625 10.09960938 2 10 C-0.4294516 6.3558226 -0.16179575 4.28758728 0 0 Z " fill="#E2E3E6" transform="translate(121,146)"/>
<path d="M0 0 C1.27230469 0.00902344 2.54460937 0.01804688 3.85546875 0.02734375 C5.31919922 0.04474609 5.31919922 0.04474609 6.8125 0.0625 C6.8125 2.0425 6.8125 4.0225 6.8125 6.0625 C4.5025 6.0625 2.1925 6.0625 -0.1875 6.0625 C-0.1875 4.7425 -0.1875 3.4225 -0.1875 2.0625 C-0.8475 2.0625 -1.5075 2.0625 -2.1875 2.0625 C-2.1875 3.3825 -2.1875 4.7025 -2.1875 6.0625 C-5.1875 5.0625 -5.1875 5.0625 -7.1875 3.0625 C-7.5175 4.0525 -7.8475 5.0425 -8.1875 6.0625 C-8.8475 4.4125 -9.5075 2.7625 -10.1875 1.0625 C-6.62704823 -0.12431726 -3.74941663 -0.03439832 0 0 Z " fill="#4C1F97" transform="translate(147.1875,166.9375)"/>
<path d="M0 0 C0.99 0 1.98 0 3 0 C3 3.63 3 7.26 3 11 C5.31 11 7.62 11 10 11 C10 11.99 10 12.98 10 14 C6.7 14 3.4 14 0 14 C0 9.38 0 4.76 0 0 Z " fill="#E2E2E5" transform="translate(47,142)"/>
<path d="M0 0 C0.66 0 1.32 0 2 0 C2 0.66 2 1.32 2 2 C2.66 2 3.32 2 4 2 C4.33 1.34 4.66 0.68 5 0 C5 0.66 5 1.32 5 2 C5.66 2 6.32 2 7 2 C7 1.34 7 0.68 7 0 C9 1 9 1 10 2 C10.33 1.34 10.66 0.68 11 0 C12.65 0 14.3 0 16 0 C16 1.65 16 3.3 16 5 C10.72 5 5.44 5 0 5 C0 3.35 0 1.7 0 0 Z " fill="#254FAF" transform="translate(80,168)"/>
<path d="M0 0 C1.65 0 3.3 0 5 0 C5.33 0.66 5.66 1.32 6 2 C6.66 2 7.32 2 8 2 C8 2.99 8 3.98 8 5 C5.03 5 2.06 5 -1 5 C-0.67 3.35 -0.34 1.7 0 0 Z " fill="#403DB3" transform="translate(98,168)"/>
<path d="M0 0 C0.99 0 1.98 0 3 0 C3 3.3 3 6.6 3 10 C2.01 10 1.02 10 0 10 C-1.2380014 6.42355152 -0.74926071 3.66305234 0 0 Z " fill="#EBECEE" transform="translate(128,146)"/>
<path d="M0 0 C0.78375 0.04125 1.5675 0.0825 2.375 0.125 C3.035 1.445 3.695 2.765 4.375 4.125 C1.735 4.125 -0.905 4.125 -3.625 4.125 C-3.955 5.115 -4.285 6.105 -4.625 7.125 C-4.75 4.75 -4.75 4.75 -4.625 2.125 C-2.625 0.125 -2.625 0.125 0 0 Z " fill="#D5D5DA" transform="translate(102.625,140.875)"/>
<path d="M0 0 C1.98 0 3.96 0 6 0 C6 0.66 6 1.32 6 2 C5.34 2 4.68 2 4 2 C3.67 3.32 3.34 4.64 3 6 C3 4.68 3 3.36 3 2 C2.34 2 1.68 2 1 2 C0.67 3.32 0.34 4.64 0 6 C-0.99 6 -1.98 6 -3 6 C-3 4.35 -3 2.7 -3 1 C-2.01 1.495 -2.01 1.495 -1 2 C-0.67 1.34 -0.34 0.68 0 0 Z " fill="#5B25B0" transform="translate(125,167)"/>
<path d="M0 0 C1.65 0 3.3 0 5 0 C5.33 1.65 5.66 3.3 6 5 C3.36 5 0.72 5 -2 5 C-1.34 3.35 -0.68 1.7 0 0 Z " fill="#5524A7" transform="translate(115,168)"/>
<path d="M0 0 C1.98 0 3.96 0 6 0 C5.01 0.495 5.01 0.495 4 1 C4 2.65 4 4.3 4 6 C2.68 6 1.36 6 0 6 C0 4.02 0 2.04 0 0 Z " fill="#014B82" transform="translate(41,167)"/>
<path d="M0 0 C0.33 1.32 0.66 2.64 1 4 C2.65 3.67 4.3 3.34 6 3 C4.68 5.31 3.36 7.62 2 10 C1.34 10 0.68 10 0 10 C0 6.7 0 3.4 0 0 Z " fill="#2B2B43" transform="translate(68,146)"/>
<path d="M0 0 C0.66 0 1.32 0 2 0 C2 0.66 2 1.32 2 2 C2.66 2 3.32 2 4 2 C4.33 1.34 4.66 0.68 5 0 C5.33 1.65 5.66 3.3 6 5 C4.02 5 2.04 5 0 5 C0 3.35 0 1.7 0 0 Z " fill="#0077BC" transform="translate(45,168)"/>
<path d="M0 0 C1.65 0 3.3 0 5 0 C5 1.32 5 2.64 5 4 C3.35 4.33 1.7 4.66 0 5 C0 3.35 0 1.7 0 0 Z " fill="#5F27B6" transform="translate(155,168)"/>
<path d="M0 0 C0.99 0 1.98 0 3 0 C5.1875 2.5 5.1875 2.5 7 5 C4.625 5.125 4.625 5.125 2 5 C1.34 4.34 0.68 3.68 0 3 C0 2.01 0 1.02 0 0 Z " fill="#D7D8DC" transform="translate(98,151)"/>
</svg>
